<?xml version="1.0" standalone="no"?>
<!DOCTYPE svg PUBLIC "-//W3C//DTD SVG 20010904//EN"
 "http://www.w3.org/TR/2001/REC-SVG-20010904/DTD/svg10.dtd">
<svg version="1.0" xmlns="http://www.w3.org/2000/svg"
 width="454.000000pt" height="550.000000pt" viewBox="0 0 454.000000 550.000000"
 preserveAspectRatio="xMidYMid meet">

<g transform="translate(0.000000,550.000000) scale(0.100000,-0.100000)"
fill="#000000" stroke="none">
<path d="M2765 5224 c-114 -28 -203 -77 -335 -184 -148 -120 -177 -152 -262
-289 -156 -251 -227 -409 -297 -661 -43 -156 -78 -273 -113 -385 l-32 -100
-208 -214 c-114 -117 -232 -243 -261 -280 -192 -238 -293 -372 -365 -481 -78
-119 -107 -158 -170 -225 -48 -51 -185 -226 -238 -305 -123 -181 -192 -329
-225 -482 -19 -88 -21 -121 -16 -247 7 -188 31 -301 90 -419 95 -192 181 -252
364 -252 157 0 254 42 379 165 44 44 97 109 118 144 152 261 329 1022 468
2016 l13 89 80 49 c107 66 319 177 485 255 74 34 144 67 155 72 66 31 221 95
300 123 22 8 78 29 125 47 77 29 252 90 257 90 1 0 -5 -19 -13 -42 -23 -63
-24 -206 -1 -241 21 -32 60 -36 94 -9 22 18 55 115 89 266 17 71 21 80 49 91
41 17 440 129 552 155 57 13 86 35 60 46 -16 6 -175 -18 -237 -36 -64 -18 -62
-21 -59 103 4 108 3 112 -18 115 -16 2 -29 -8 -51 -40 -36 -52 -80 -94 -88
-85 -4 4 6 23 22 43 56 69 67 93 54 109 -33 40 -93 -4 -106 -77 -9 -46 -27
-72 -67 -96 l-35 -20 5 59 c5 54 4 59 -14 59 -14 0 -24 -13 -37 -49 -9 -27
-27 -57 -38 -68 l-21 -18 6 65 c4 36 10 82 13 103 8 46 -9 50 -32 5 -15 -28
-49 -63 -96 -96 -17 -13 -18 -10 -12 72 5 57 3 86 -3 86 -15 0 -20 -16 -34
-112 -6 -45 -15 -88 -20 -94 -5 -6 -6 -24 -3 -40 3 -16 1 -48 -4 -71 -7 -31
-6 -47 3 -59 11 -15 13 -15 28 7 10 14 17 45 18 74 1 73 9 90 57 124 l42 31 0
-49 c0 -32 6 -55 16 -65 18 -19 20 -19 45 -6 36 20 20 -9 -43 -78 l-62 -67
-176 -61 c-440 -154 -851 -336 -1172 -522 -107 -61 -104 -68 -49 149 l39 154
297 300 c163 165 330 341 372 390 42 50 79 92 82 95 36 27 271 332 383 495 84
122 108 173 108 228 0 99 -53 149 -164 153 -39 2 -80 1 -91 -2z m178 -73 c42
-41 43 -97 3 -162 -48 -78 -349 -477 -405 -535 -15 -16 -67 -76 -116 -134 -48
-58 -161 -179 -250 -270 -89 -91 -204 -209 -255 -263 -51 -53 -95 -96 -97 -93
-2 2 2 16 8 32 6 16 15 43 19 59 45 175 137 474 177 575 62 157 230 447 307
528 81 86 240 208 321 247 94 44 136 55 203 51 45 -2 59 -8 85 -35z m555 -980
c-16 -19 -24 -23 -26 -14 -4 18 27 55 40 47 4 -3 -2 -18 -14 -33z m81 -98 c-2
-38 0 -78 4 -90 7 -19 4 -23 -20 -28 -15 -3 -83 -20 -151 -37 -67 -17 -124
-29 -126 -27 -2 2 2 23 8 46 9 34 22 51 66 83 45 33 55 38 63 25 16 -29 55
-17 102 32 25 26 45 50 45 55 0 4 3 8 6 8 3 0 4 -30 3 -67z m-349 -193 c-6
-11 -15 -20 -20 -20 -6 0 -5 9 2 20 7 11 16 20 21 20 4 0 3 -9 -3 -20z m-37
-150 c-21 -94 -63 -220 -72 -220 -26 0 -29 129 -4 206 12 40 23 56 42 63 48
17 49 15 34 -49z m-1511 -281 c-5 -13 -22 -80 -37 -149 -15 -69 -32 -130 -37
-137 -5 -6 -61 -47 -123 -90 -63 -43 -132 -90 -152 -105 -57 -40 -248 -200
-321 -269 -35 -33 -82 -77 -105 -97 l-41 -37 49 70 c57 82 142 189 177 225 13
14 63 72 110 130 90 110 474 498 483 488 3 -3 2 -16 -3 -29z m-86 -406 c-3
-10 -12 -70 -22 -133 -61 -426 -122 -763 -209 -1170 -56 -261 -140 -553 -193
-670 -42 -92 -161 -224 -248 -275 -85 -50 -231 -68 -333 -40 -97 26 -141 69
-219 215 -68 127 -92 240 -92 424 0 219 52 378 192 591 99 149 284 375 308
375 6 0 10 6 10 13 0 14 250 262 355 353 157 135 423 334 447 334 5 0 7 -8 4
-17z"/>
<path d="M2979 4257 c-20 -17 -39 -40 -43 -49 -8 -26 3 -48 24 -48 23 0 70 55
70 81 0 10 5 19 11 19 6 0 4 7 -5 15 -19 19 -15 20 -57 -18z"/>
<path d="M2781 4050 c-22 -50 -41 -95 -41 -100 0 -6 -10 -10 -22 -11 -13 -1
-32 -2 -43 -3 -14 -1 -32 -24 -60 -75 -42 -78 -108 -161 -120 -149 -4 4 -2 28
3 55 12 53 9 59 -29 68 -21 5 -34 0 -64 -27 -99 -86 -79 -234 21 -156 17 14
38 21 55 19 21 -2 39 8 71 37 36 34 45 38 56 26 25 -28 51 -14 100 55 19 25
32 37 32 28 0 -21 35 -57 55 -57 24 0 80 56 100 100 17 38 35 53 35 29 0 -15
42 -7 48 9 2 7 -2 11 -10 10 -15 -3 -17 46 -4 130 7 43 5 52 -7 52 -10 0 -21
-20 -32 -57 -35 -120 -109 -244 -136 -227 -19 11 -3 130 30 228 35 102 36 106
17 106 -7 0 -32 -41 -55 -90z m-85 -207 c-4 -17 -20 -45 -36 -64 l-29 -34 -1
33 c0 35 12 65 38 95 21 23 36 7 28 -30z m-236 -53 c0 -29 -56 -120 -74 -120
-10 0 -7 40 5 63 24 46 69 83 69 57z"/>
</g>
</svg>
